<?xml version="1.0" encoding="UTF-8"?>
<!-- Do not edit this file with editors other than diagrams.net -->
<!DOCTYPE svg PUBLIC "-//W3C//DTD SVG 1.1//EN" "http://www.w3.org/Graphics/SVG/1.1/DTD/svg11.dtd">
<svg xmlns="http://www.w3.org/2000/svg" xmlns:xlink="http://www.w3.org/1999/xlink" version="1.1" width="349px" height="158px" viewBox="-0.5 -0.5 349 158" content="&lt;mxfile host=&quot;Electron&quot; modified=&quot;2023-05-01T11:10:03.813Z&quot; agent=&quot;Mozilla/5.0 (Macintosh; Intel Mac OS X 10_15_7) AppleWebKit/537.36 (KHTML, like Gecko) draw.io/21.2.1 Chrome/112.0.5615.87 Electron/24.1.2 Safari/537.36&quot; etag=&quot;f0QN-88LNYz5SKMGJ0hy&quot; version=&quot;21.2.1&quot; type=&quot;device&quot;&gt;&#10;  &lt;diagram name=&quot;Page-1&quot; id=&quot;OzkYeC-htCrqeNXOPDmC&quot;&gt;&#10;    &lt;mxGraphModel dx=&quot;1306&quot; dy=&quot;947&quot; grid=&quot;1&quot; gridSize=&quot;10&quot; guides=&quot;1&quot; tooltips=&quot;1&quot; connect=&quot;1&quot; arrows=&quot;1&quot; fold=&quot;1&quot; page=&quot;1&quot; pageScale=&quot;1&quot; pageWidth=&quot;827&quot; pageHeight=&quot;1169&quot; math=&quot;0&quot; shadow=&quot;0&quot;&gt;&#10;      &lt;root&gt;&#10;        &lt;mxCell id=&quot;0&quot; /&gt;&#10;        &lt;mxCell id=&quot;1&quot; parent=&quot;0&quot; /&gt;&#10;        &lt;mxCell id=&quot;HZB4CK9sHzaHWQ-24wEF-8&quot; value=&quot;Terms&amp;#xa;Command DB&quot; style=&quot;shape=image;verticalLabelPosition=bottom;labelBackgroundColor=default;verticalAlign=top;aspect=fixed;imageAspect=0;image=https://i.namu.wiki/i/vkGpBcmks1_NcJW0HUFa6jlwlM6h11B-8nxRRX4bYC703H4nLo7j4dQdRCC32gz8Q-BqRcAnQgFSXMjB8jPohg.svg;fontFamily=Architects Daughter;fontSource=https%3A%2F%2Ffonts.googleapis.com%2Fcss%3Ffamily%3DArchitects%2BDaughter;&quot; vertex=&quot;1&quot; parent=&quot;1&quot;&gt;&#10;          &lt;mxGeometry x=&quot;400&quot; y=&quot;370&quot; width=&quot;117.58&quot; height=&quot;80&quot; as=&quot;geometry&quot; /&gt;&#10;        &lt;/mxCell&gt;&#10;        &lt;mxCell id=&quot;HZB4CK9sHzaHWQ-24wEF-17&quot; style=&quot;edgeStyle=orthogonalEdgeStyle;rounded=0;sketch=1;hachureGap=4;jiggle=2;curveFitting=1;orthogonalLoop=1;jettySize=auto;html=1;fontFamily=Architects Daughter;fontSource=https%3A%2F%2Ffonts.googleapis.com%2Fcss%3Ffamily%3DArchitects%2BDaughter;fontSize=16;&quot; edge=&quot;1&quot; parent=&quot;1&quot; source=&quot;HZB4CK9sHzaHWQ-24wEF-14&quot; target=&quot;HZB4CK9sHzaHWQ-24wEF-8&quot;&gt;&#10;          &lt;mxGeometry relative=&quot;1&quot; as=&quot;geometry&quot; /&gt;&#10;        &lt;/mxCell&gt;&#10;        &lt;mxCell id=&quot;HZB4CK9sHzaHWQ-24wEF-14&quot; value=&quot;Terms &amp;#xa;Command Service&quot; style=&quot;shape=image;verticalLabelPosition=bottom;labelBackgroundColor=default;verticalAlign=top;aspect=fixed;imageAspect=0;image=https://taetaetae.github.io/images/spring-boot-eclipse/spring-boot-logo.jpg;fontFamily=Architects Daughter;fontSource=https%3A%2F%2Ffonts.googleapis.com%2Fcss%3Ffamily%3DArchitects%2BDaughter;&quot; vertex=&quot;1&quot; parent=&quot;1&quot;&gt;&#10;          &lt;mxGeometry x=&quot;170&quot; y=&quot;350&quot; width=&quot;120&quot; height=&quot;120&quot; as=&quot;geometry&quot; /&gt;&#10;        &lt;/mxCell&gt;&#10;      &lt;/root&gt;&#10;    &lt;/mxGraphModel&gt;&#10;  &lt;/diagram&gt;&#10;&lt;/mxfile&gt;&#10;"><defs/><g><image x="229.5" y="19.5" width="117.58" height="80" xlink:href="https://i.namu.wiki/i/vkGpBcmks1_NcJW0HUFa6jlwlM6h11B-8nxRRX4bYC703H4nLo7j4dQdRCC32gz8Q-BqRcAnQgFSXMjB8jPohg.svg" preserveAspectRatio="none"/><g fill="rgb(0, 0, 0)" font-family="Architects Daughter" text-anchor="middle" font-size="12px"><rect fill="rgb(255, 255, 255)" stroke="none" x="252" y="108" width="75" height="30" stroke-width="0"/><text x="288.29" y="117.5">Terms</text><text x="288.29" y="131.5">Command DB</text></g><path d="M 120 60 L 223.63 60" fill="none" stroke="none" pointer-events="stroke"/><path d="M 228.88 60 L 221.88 63.5 L 223.63 60 L 221.88 56.5 Z" fill="none" stroke="none" pointer-events="all"/><path d="M 120 60 M 120 60 C 154.63 60.1 184.44 58.39 223.63 60 M 120 60 C 142.73 62.07 165.68 63.67 223.63 60" fill="none" stroke="rgb(0, 0, 0)" stroke-linejoin="round" stroke-linecap="round" stroke-miterlimit="10" pointer-events="stroke"/><path d="M 221.61 56.81 C 221.61 56.81 221.61 56.81 221.61 56.81 M 221.61 56.81 C 221.61 56.81 221.61 56.81 221.61 56.81 M 223.97 60.19 C 224.49 59.99 224.87 59.29 225.29 58.68 M 223.97 60.19 C 224.42 59.87 224.75 59.39 225.29 58.68" fill="none" stroke="rgb(0, 0, 0)" stroke-width="0.5" stroke-linejoin="round" stroke-linecap="round" stroke-miterlimit="10" pointer-events="all"/><path d="M 228.88 60 M 228.88 60 C 227.24 61.05 222.45 61.27 221.88 63.5 M 228.88 60 C 226.01 60.77 224.48 62.25 221.88 63.5 M 221.88 63.5 C 221.96 62.69 222.73 62.57 223.63 60 M 221.88 63.5 C 222.84 62.34 223.19 60.52 223.63 60 M 223.63 60 C 223.55 57.96 222.53 57.13 221.88 56.5 M 223.63 60 C 222.74 58.84 222.05 57.05 221.88 56.5 M 221.88 56.5 C 223.73 57.47 224.72 57.71 228.88 60 M 221.88 56.5 C 223.62 57.8 226.41 59.08 228.88 60" fill="none" stroke="rgb(0, 0, 0)" stroke-linejoin="round" stroke-linecap="round" stroke-miterlimit="10" pointer-events="all"/><image x="-0.5" y="-0.5" width="120" height="120" xlink:href="https://taetaetae.github.io/images/spring-boot-eclipse/spring-boot-logo.jpg" preserveAspectRatio="none"/><g fill="rgb(0, 0, 0)" font-family="Architects Daughter" text-anchor="middle" font-size="12px"><rect fill="rgb(255, 255, 255)" stroke="none" x="10" y="128" width="102" height="30" stroke-width="0"/><text x="59.5" y="137.5">Terms </text><text x="59.5" y="151.5">Command Service</text></g></g></svg>
